<?xml version="1.0" standalone="no"?>
<!DOCTYPE svg PUBLIC "-//W3C//DTD SVG 20010904//EN"
 "http://www.w3.org/TR/2001/REC-SVG-20010904/DTD/svg10.dtd">
<svg version="1.0" xmlns="http://www.w3.org/2000/svg"
 width="1200.000000pt" height="1200.000000pt" viewBox="0 0 1200.000000 1200.000000"
 preserveAspectRatio="xMidYMid meet">
<metadata>
Created by potrace 1.14, written by Peter Selinger 2001-2017
</metadata>
<g transform="translate(0.000000,1200.000000) scale(0.100000,-0.100000)"
fill="#000000" stroke="none">
<path d="M5998 11256 c-1 -2 -46 -6 -98 -10 -108 -6 -123 -9 -240 -38 -216
-52 -368 -135 -686 -373 -22 -16 -51 -38 -65 -48 -208 -150 -576 -418 -584
-424 -6 -4 -33 -24 -60 -42 -28 -19 -52 -38 -55 -41 -3 -4 -27 -21 -55 -40
-27 -19 -52 -37 -55 -40 -3 -3 -27 -22 -55 -40 -27 -19 -80 -57 -117 -85 -36
-27 -76 -57 -88 -65 -12 -8 -56 -40 -98 -71 -43 -31 -342 -249 -667 -484 -324
-235 -621 -451 -660 -480 -38 -28 -135 -98 -215 -155 -80 -57 -147 -107 -150
-110 -5 -6 -87 -65 -228 -165 -32 -22 -91 -65 -132 -96 -167 -124 -230 -169
-239 -169 -5 0 -11 -4 -13 -8 -1 -5 -30 -28 -63 -52 -33 -23 -82 -59 -110 -80
-27 -20 -86 -63 -130 -95 -360 -265 -577 -687 -578 -1125 -1 -94 9 -227 17
-250 3 -8 7 -26 10 -40 9 -59 81 -292 211 -685 18 -55 83 -255 145 -445 61
-190 118 -362 126 -382 7 -21 12 -38 9 -38 -2 0 3 -16 11 -35 13 -32 91 -269
99 -305 2 -8 17 -53 33 -100 16 -47 73 -220 127 -385 53 -165 130 -401 170
-525 75 -231 87 -268 91 -285 1 -5 29 -91 62 -190 33 -99 99 -301 147 -450 48
-148 89 -277 93 -285 3 -8 6 -17 6 -20 1 -3 16 -48 33 -100 17 -52 81 -249
142 -437 181 -554 275 -703 612 -966 13 -10 33 -23 44 -28 11 -5 34 -18 50
-28 143 -92 367 -165 570 -187 64 -7 5216 -7 5275 0 186 22 305 56 466 131 87
41 231 130 285 177 172 150 274 279 368 464 47 95 65 145 196 549 53 165 110
341 127 390 16 50 31 95 32 100 1 6 7 24 13 40 6 17 46 138 88 270 42 132 96
299 120 370 24 72 84 258 135 415 51 157 111 341 133 410 23 69 42 128 43 133
1 4 3 9 4 12 1 3 3 8 4 13 1 4 19 59 39 122 21 63 88 268 148 455 61 187 121
372 134 410 47 140 219 670 221 680 1 6 11 37 22 70 66 194 174 534 191 602
31 120 35 163 36 348 0 162 -5 215 -25 295 -5 19 -11 46 -14 60 -2 14 -5 25
-6 25 -1 0 -3 7 -5 15 -7 36 -71 190 -107 258 -119 224 -274 384 -573 592 -16
11 -64 46 -105 76 -41 30 -84 61 -95 69 -83 60 -202 146 -210 152 -5 5 -26 20
-45 33 -19 13 -39 28 -45 33 -9 7 -96 71 -140 102 -11 8 -56 41 -100 73 -44
32 -154 112 -245 178 -91 65 -169 122 -175 127 -5 4 -428 312 -940 683 -511
371 -938 681 -947 689 -9 7 -29 22 -45 32 -15 10 -35 23 -43 30 -12 10 -133
98 -245 179 -68 49 -244 177 -264 191 -162 121 -346 247 -408 279 -122 63
-286 123 -388 140 -22 4 -49 9 -60 11 -11 2 -58 6 -105 9 -47 3 -90 7 -97 9
-6 2 -13 2 -15 1z m100 -957 c31 -7 61 -16 67 -21 5 -4 15 -8 22 -8 15 0 184
-109 203 -131 5 -5 165 -122 352 -256 40 -29 82 -59 93 -67 11 -8 99 -72 195
-142 96 -70 186 -136 200 -146 14 -11 66 -48 115 -83 50 -35 95 -68 100 -72
19 -16 296 -218 320 -233 13 -9 36 -25 52 -37 15 -12 91 -67 168 -123 77 -56
151 -110 165 -120 92 -68 1094 -797 1108 -805 9 -5 19 -12 22 -15 3 -3 181
-133 395 -289 215 -155 401 -291 415 -301 14 -10 76 -55 137 -100 146 -104
195 -155 240 -248 37 -74 38 -78 38 -186 -1 -96 -5 -123 -30 -196 -15 -47 -30
-89 -31 -95 -1 -5 -24 -77 -52 -160 -27 -82 -87 -265 -132 -405 -45 -140 -104
-320 -130 -400 -81 -247 -232 -713 -235 -724 -1 -6 -5 -20 -9 -31 -13 -34 -22
-60 -127 -385 -55 -173 -115 -355 -131 -405 -17 -49 -31 -94 -33 -100 -1 -5
-5 -17 -8 -25 -3 -8 -46 -143 -97 -300 -50 -157 -94 -292 -97 -300 -4 -8 -7
-18 -8 -22 -2 -5 -3 -9 -5 -10 -1 -2 -3 -10 -5 -18 -3 -15 -84 -266 -152 -470
-19 -58 -36 -112 -38 -121 -2 -8 -11 -33 -20 -55 -9 -21 -16 -41 -15 -44 0 -7
-79 -260 -90 -285 -5 -11 -36 -105 -69 -209 -34 -104 -75 -212 -91 -242 -59
-102 -177 -187 -298 -213 -39 -8 -730 -10 -2625 -8 -1415 1 -2582 5 -2594 9
-60 19 -155 74 -199 116 -77 74 -101 127 -203 447 -18 55 -35 107 -38 115 -4
8 -7 17 -8 20 0 3 -8 28 -17 55 -115 351 -250 771 -253 784 -2 9 -12 41 -23
71 -24 64 -122 368 -127 391 -2 8 -11 33 -20 55 -9 21 -16 39 -15 39 1 0 -2
11 -24 80 -9 28 -19 60 -22 73 -2 12 -13 46 -23 75 -11 29 -63 187 -116 352
-53 165 -108 334 -122 375 -14 41 -26 80 -27 85 -2 6 -8 23 -14 38 -7 16 -12
32 -12 36 0 4 -24 81 -54 172 -30 90 -91 279 -136 419 -164 506 -210 646 -226
690 -8 25 -17 52 -19 60 -2 8 -17 58 -35 110 -152 463 -161 498 -153 583 9 97
49 195 109 267 21 25 160 133 289 224 16 12 182 132 433 314 13 9 42 31 65 48
23 17 218 159 432 314 215 155 408 296 430 312 43 32 392 285 544 395 51 37
149 109 217 158 68 50 232 169 365 265 132 96 248 181 257 188 20 15 268 195
407 294 55 39 112 81 126 92 14 12 36 28 49 36 12 8 37 26 56 40 37 28 27 21
259 188 93 67 178 129 187 137 29 24 120 67 168 80 64 16 142 18 208 4z m-223
-9079 l0 -265 -27 -3 c-25 -3 -28 0 -28 27 l0 31 -21 -21 c-62 -62 -167 -55
-213 16 -20 30 -28 68 -28 130 -1 66 3 84 30 128 39 67 130 84 193 38 l29 -22
1 33 c0 18 1 66 1 106 l-1 73 32 -3 32 -3 0 -265z m-417 237 c13 -15 10 -43
-5 -58 -16 -16 -61 -3 -65 19 -9 41 44 71 70 39z m-918 -87 l5 -45 44 -1 c44
-2 63 -16 54 -41 -5 -12 -33 -17 -80 -13 -21 1 -22 -1 -20 -125 2 -140 6 -147
66 -143 26 2 35 -1 36 -14 4 -26 -18 -39 -68 -40 -52 -1 -84 23 -94 68 -3 16
-6 80 -6 142 l-1 112 -27 0 c-33 0 -48 29 -24 46 9 7 24 10 34 7 15 -4 18 1
18 29 -1 50 9 70 35 66 19 -2 24 -11 28 -48z m250 -79 l0 -26 24 28 c31 36 93
48 111 23 7 -9 11 -26 8 -36 -4 -16 -11 -19 -38 -14 -27 4 -39 0 -64 -25 -34
-34 -33 -27 -36 -166 -2 -55 -3 -106 -4 -112 -1 -7 -14 -13 -31 -13 l-30 0 0
184 c0 168 2 185 18 188 29 7 42 -3 42 -31z m444 12 c31 -23 55 -68 60 -114 7
-61 0 -64 -131 -64 l-118 0 -1 -25 c-2 -82 75 -123 176 -93 59 17 60 17 58
-12 -3 -33 -42 -48 -128 -47 -57 1 -68 3 -107 27 -46 27 -67 76 -67 160 0 89
28 145 88 175 49 25 131 22 170 -7z m223 -167 l-2 -181 -30 0 -30 0 0 178 c-1
188 3 201 46 190 17 -5 18 -19 16 -187z m775 168 c32 -24 55 -67 62 -116 9
-58 -4 -64 -134 -63 -120 1 -128 -3 -116 -49 17 -67 81 -93 169 -70 66 18 67
18 67 -5 0 -38 -43 -54 -141 -53 -103 0 -160 60 -164 171 -3 100 19 150 85
190 43 26 135 23 172 -5z m218 6 c4 -7 6 -20 3 -28 -4 -8 13 0 37 17 49 35 94
40 141 15 51 -26 64 -72 64 -225 l0 -134 -33 -3 -32 -3 -1 130 c-1 72 -2 134
-4 139 -13 47 -58 68 -98 47 -66 -34 -69 -42 -71 -182 l-1 -128 -30 0 -30 0
-1 175 c0 96 3 180 8 187 11 14 37 11 48 -7z m622 -28 c-3 -10 10 -3 31 16 55
47 117 43 117 -9 0 -28 -1 -29 -39 -23 -35 6 -41 3 -70 -32 -33 -39 -33 -39
-34 -159 l-2 -120 -30 0 -30 0 0 182 c-1 175 0 182 20 186 25 4 46 -19 37 -41z
m275 35 c4 -4 8 -63 8 -130 2 -149 13 -181 65 -185 27 -2 44 4 72 28 l36 30 1
127 c1 89 5 129 14 135 15 10 19 10 36 -1 11 -7 14 -42 14 -173 -1 -89 -2
-171 -2 -181 -1 -14 -8 -18 -28 -15 -22 2 -28 8 -27 26 2 27 -4 28 -30 3 -32
-28 -79 -40 -120 -31 -79 18 -93 49 -95 222 -1 76 0 141 3 146 6 10 42 9 53
-1z m-457 -296 c19 -37 -3 -75 -41 -69 -29 4 -49 49 -31 71 17 20 61 18 72 -2z"/>
<path d="M5882 6930 c-121 -22 -228 -75 -317 -157 -182 -167 -292 -269 -306
-283 -14 -13 -165 -153 -254 -234 -16 -16 -75 -70 -130 -120 -55 -51 -112
-104 -126 -117 -28 -25 -158 -146 -399 -369 -80 -74 -167 -155 -195 -180 -27
-25 -83 -76 -125 -115 -90 -84 -295 -273 -400 -369 -41 -38 -104 -97 -140
-130 -36 -34 -121 -113 -190 -176 -69 -63 -152 -140 -185 -172 -33 -31 -74
-69 -91 -85 -56 -49 -66 -90 -39 -143 21 -41 82 -70 148 -70 46 0 71 9 168 58
63 33 231 119 374 192 143 73 339 173 435 223 96 49 267 137 380 194 220 113
467 240 780 401 547 280 550 282 710 287 182 6 198 0 880 -351 113 -58 338
-173 500 -256 162 -83 358 -183 435 -223 77 -40 237 -122 355 -182 118 -61
317 -163 442 -227 202 -103 232 -116 278 -116 97 0 165 50 165 122 0 43 -10
53 -235 262 -142 131 -175 162 -250 231 -171 159 -304 281 -320 295 -9 8 -68
62 -130 120 -160 149 -156 145 -271 250 -57 52 -137 127 -179 165 -87 82 -209
196 -225 210 -7 6 -63 57 -125 115 -62 58 -118 110 -125 115 -6 6 -42 39 -81
75 -38 36 -96 90 -129 120 -33 30 -118 109 -190 175 -71 66 -135 125 -141 130
-6 6 -59 55 -118 110 -134 124 -195 166 -296 199 -90 30 -248 42 -338 26z"/>
<path d="M5684 1270 c-36 -14 -58 -60 -60 -125 -1 -69 8 -101 38 -127 45 -39
145 6 149 67 5 93 -1 130 -24 152 -28 28 -75 43 -103 33z"/>
<path d="M5089 1268 c-20 -16 -43 -58 -45 -80 -1 -16 9 -18 93 -18 l94 0 -4
28 c-11 60 -22 71 -87 78 -19 2 -42 -2 -51 -8z"/>
<path d="M6100 1273 c-26 -11 -60 -60 -60 -88 0 -12 17 -15 95 -15 73 0 95 3
95 14 0 27 -22 75 -38 81 -24 10 -74 14 -92 8z"/>
</g>
</svg>
