<?xml version="1.0" standalone="no"?>
<!DOCTYPE svg PUBLIC "-//W3C//DTD SVG 20010904//EN"
 "http://www.w3.org/TR/2001/REC-SVG-20010904/DTD/svg10.dtd">
<svg version="1.0" xmlns="http://www.w3.org/2000/svg"
 width="1367.000000pt" height="1367.000000pt" viewBox="0 0 1367.000000 1367.000000"
 preserveAspectRatio="xMidYMid meet">
<metadata>
Created by potrace 1.14, written by Peter Selinger 2001-2017
</metadata>
<g transform="translate(0.000000,1367.000000) scale(0.100000,-0.100000)"
fill="#000000" stroke="none">
<path d="M6669 13416 c-2 -2 -31 -7 -64 -11 -217 -24 -464 -111 -674 -237 -68
-40 -698 -491 -976 -698 -27 -21 -167 -122 -310 -225 -143 -103 -282 -205
-310 -225 -27 -21 -169 -124 -315 -230 -146 -105 -276 -200 -290 -211 -14 -10
-71 -51 -127 -91 -56 -40 -213 -154 -350 -254 -136 -99 -561 -408 -943 -686
-1405 -1020 -1636 -1189 -1684 -1231 -66 -56 -170 -161 -215 -217 -20 -25 -38
-47 -41 -50 -12 -11 -78 -109 -113 -166 -87 -144 -175 -357 -202 -489 -41
-193 -51 -294 -48 -448 4 -236 43 -404 218 -922 13 -38 74 -225 135 -415 149
-461 228 -703 250 -770 20 -61 234 -720 312 -960 119 -370 181 -559 198 -610
21 -62 88 -270 245 -755 59 -181 122 -375 140 -430 18 -55 56 -172 85 -260 28
-88 78 -241 110 -340 32 -99 111 -342 175 -540 178 -549 183 -561 247 -695
114 -236 262 -424 484 -610 147 -124 446 -274 638 -321 72 -17 79 -19 171 -37
85 -16 290 -17 3400 -17 2935 0 3382 3 3445 20 8 2 31 7 50 10 83 14 203 49
305 90 232 93 411 211 590 390 125 125 203 226 283 366 94 165 113 216 306
814 48 149 98 302 111 340 13 39 73 225 135 415 192 592 231 713 255 785 13
39 69 212 125 385 56 173 110 340 120 370 10 30 74 224 140 430 149 458 247
762 265 815 8 22 43 130 78 240 106 327 257 792 297 915 21 63 77 237 125 385
48 149 100 310 116 359 75 229 97 369 97 601 -2 493 -206 949 -577 1285 -67
61 -258 204 -836 623 -128 93 -150 108 -225 164 -41 30 -124 90 -185 134 -94
67 -317 229 -393 285 -12 10 -152 111 -310 225 -158 114 -314 228 -347 252
-33 25 -526 383 -1095 797 -569 413 -1046 760 -1060 770 -131 97 -755 547
-826 595 -211 142 -474 243 -730 279 -86 12 -395 21 -405 12z m-896 -982 c57
-79 90 -124 189 -261 l51 -73 -23 -20 c-12 -11 -26 -17 -30 -15 -5 3 -37 43
-71 90 -35 47 -67 85 -72 85 -20 0 -87 -78 -87 -101 0 -13 11 -65 25 -114 l25
-90 -26 -23 c-15 -13 -30 -20 -34 -15 -4 4 -17 44 -29 88 -22 77 -29 144 -16
164 3 6 -12 10 -35 9 -86 -1 -144 55 -142 138 0 41 9 61 44 105 21 26 152 119
163 116 6 -2 36 -39 68 -83z m2685 -186 c102 -70 132 -110 137 -178 1 -25 -24
-83 -48 -108 -61 -65 -134 -69 -227 -14 l-64 39 -58 -79 c-56 -76 -60 -79 -81
-65 -11 7 -22 18 -24 24 -2 6 31 58 74 116 43 58 85 115 93 127 79 114 124
170 136 170 9 0 36 -14 62 -32z m-1484 -28 c44 -11 103 -33 132 -49 40 -23
333 -230 414 -294 9 -7 38 -28 65 -47 28 -19 55 -38 60 -43 6 -4 99 -73 208
-152 109 -79 208 -151 220 -159 158 -116 1897 -1378 1953 -1417 41 -30 81 -59
87 -64 7 -6 102 -76 212 -155 110 -80 205 -148 210 -153 6 -4 42 -31 80 -58
39 -28 81 -59 95 -69 37 -28 878 -638 930 -675 280 -200 625 -456 664 -493 57
-55 95 -108 126 -176 41 -92 49 -133 46 -250 -3 -99 -8 -125 -46 -241 -132
-405 -218 -668 -262 -805 -27 -85 -60 -186 -73 -225 -42 -127 -152 -466 -255
-785 -56 -173 -121 -373 -144 -445 -24 -71 -82 -251 -130 -400 -48 -148 -98
-301 -111 -340 -13 -38 -73 -225 -135 -415 -61 -190 -122 -376 -135 -415 -31
-92 -178 -547 -181 -560 -1 -5 -27 -84 -57 -175 -30 -91 -77 -235 -105 -320
-360 -1111 -336 -1040 -375 -1110 -66 -118 -198 -222 -341 -268 -47 -16 -299
-17 -3291 -17 l-3240 0 -73 24 c-80 26 -170 79 -224 132 -79 78 -122 157 -173
312 -18 56 -83 257 -144 447 -62 190 -116 356 -121 370 -14 40 -141 431 -240
740 -50 157 -95 294 -100 305 -5 11 -18 52 -30 90 -24 79 -212 661 -270 835
-36 109 -203 622 -312 960 -27 85 -60 187 -73 225 -13 39 -69 212 -125 385
-56 173 -114 353 -130 400 -15 47 -55 168 -88 270 -33 102 -110 338 -170 525
-134 412 -133 408 -134 503 -2 129 22 216 88 319 49 77 99 123 249 232 72 52
162 118 200 146 39 29 336 245 660 480 325 236 721 523 880 639 160 116 292
214 293 218 2 5 8 8 13 8 5 0 17 7 26 15 10 8 83 61 163 119 80 58 163 118
185 134 22 16 191 139 375 272 184 134 367 266 405 295 134 98 879 640 902
655 21 14 715 519 827 603 165 122 345 162 520 117z m-1594 -146 c273 -186
294 -201 297 -211 2 -6 -8 -18 -22 -27 -25 -16 -27 -16 -85 24 -36 24 -65 38
-73 34 -14 -9 -148 -104 -160 -114 -4 -4 2 -37 13 -74 20 -64 20 -69 4 -87
-21 -24 -41 -24 -48 -1 -3 9 -37 127 -77 262 l-71 245 33 27 c18 15 37 24 43
20 6 -3 72 -48 146 -98z m3476 -115 c124 -89 118 -83 104 -109 -14 -27 -21
-24 -114 45 -42 31 -80 54 -84 51 -5 -3 -22 -24 -38 -48 -16 -24 -35 -49 -41
-56 -18 -19 -16 -25 10 -41 12 -8 46 -32 76 -54 l53 -39 -20 -21 -20 -20 -71
52 c-68 49 -91 60 -91 43 0 -5 -20 -35 -45 -68 -24 -32 -45 -63 -45 -69 0 -5
32 -32 72 -60 97 -68 100 -72 85 -95 -6 -11 -15 -20 -18 -20 -4 0 -57 36 -119
81 -70 51 -110 86 -106 94 12 32 290 405 301 405 7 0 57 -32 111 -71z m-3752
-212 c75 -103 136 -193 136 -199 0 -11 -29 -37 -42 -38 -8 0 -104 125 -137
179 -7 11 -24 3 -77 -35 -38 -27 -78 -57 -88 -66 -11 -10 -23 -18 -28 -18 -16
0 -7 -18 62 -110 69 -95 69 -95 49 -112 -12 -10 -26 -18 -33 -18 -9 1 -295
386 -304 411 -5 12 23 39 40 39 8 0 42 -38 76 -85 l62 -85 84 60 c46 33 89 67
95 74 9 11 -1 31 -49 94 -33 44 -60 84 -60 90 0 5 10 16 23 25 29 20 22 27
191 -206z m4108 -44 c36 -22 38 -8 -36 -263 -92 -318 -91 -315 -131 -270 -17
19 -17 22 2 87 l20 68 -85 63 c-47 34 -88 62 -92 62 -3 0 -30 -18 -60 -39 -54
-38 -55 -39 -82 -23 -16 9 -28 20 -28 24 0 4 39 34 88 65 48 32 89 60 92 63 3
3 43 31 90 63 47 31 105 70 129 87 51 35 54 35 93 13z m-4660 -81 c15 -20 83
-114 152 -209 113 -156 123 -173 108 -186 -34 -29 -40 -26 -83 34 -24 33 -49
66 -55 73 -6 6 -16 21 -23 34 -6 12 -16 22 -21 22 -5 0 -46 -27 -91 -60 -45
-32 -86 -61 -93 -63 -10 -4 67 -129 99 -161 31 -31 33 -49 10 -68 -13 -10 -25
-18 -28 -18 -7 0 -296 396 -303 415 -3 8 6 21 21 31 29 19 25 22 82 -61 16
-22 34 -46 40 -53 7 -7 17 -20 22 -29 8 -15 11 -15 37 2 46 29 164 117 164
122 0 3 -28 43 -61 89 -60 82 -61 85 -44 104 25 28 36 25 67 -18z m5096 -238
c56 -41 102 -79 102 -84 0 -5 -19 -36 -42 -68 -213 -296 -254 -351 -264 -352
-18 0 -47 38 -38 52 12 21 154 218 206 285 26 34 48 68 48 75 0 7 -25 30 -55
51 l-54 38 -119 -118 c-118 -117 -198 -173 -250 -173 -25 0 -82 26 -82 38 0 4
7 17 15 29 13 18 19 20 43 11 46 -18 103 20 242 162 69 71 130 129 135 129 6
0 56 -33 113 -75z m-5514 -35 c14 -21 13 -24 -18 -48 -18 -15 -56 -42 -84 -61
-28 -19 -52 -38 -52 -42 0 -11 84 -127 92 -127 5 -1 40 22 79 50 57 40 73 48
85 38 25 -20 15 -35 -56 -85 -38 -27 -69 -52 -70 -56 0 -9 100 -148 107 -148
3 0 43 27 89 61 82 59 86 60 104 44 11 -10 17 -21 14 -26 -9 -16 -214 -159
-227 -159 -8 0 -31 25 -53 55 -21 30 -66 92 -100 138 -158 215 -157 214 -136
235 11 11 46 38 78 60 33 22 73 52 89 66 37 31 40 31 59 5z m5779 -156 c14
-17 10 -25 -46 -102 -40 -54 -57 -86 -49 -89 27 -9 123 -95 138 -125 34 -66
14 -143 -51 -193 -42 -32 -94 -37 -150 -16 -45 18 -170 105 -178 125 -7 18
284 417 304 417 9 0 23 -8 32 -17z m-6113 -113 c19 -15 270 -373 270 -385 0
-17 -36 -39 -50 -30 -5 3 -37 45 -71 93 -35 48 -64 89 -65 91 -2 3 -162 -107
-188 -130 -4 -4 24 -52 63 -106 70 -98 70 -98 50 -115 -12 -10 -26 -18 -33
-18 -6 1 -74 88 -151 195 -178 248 -164 223 -141 241 11 8 25 14 32 14 7 0 40
-38 74 -85 l61 -84 94 67 c52 37 95 70 95 73 0 3 -27 43 -60 89 -33 46 -59 88
-57 94 2 6 14 16 28 23 20 10 25 10 33 -5 5 -9 12 -19 16 -22z m6480 -164 c-1
-6 -27 -47 -60 -91 -55 -75 -58 -81 -42 -97 33 -32 167 -126 175 -121 4 2 33
39 64 81 31 42 57 79 59 81 7 8 54 -19 54 -31 0 -7 -48 -78 -106 -158 -58 -80
-124 -171 -147 -202 -23 -32 -45 -58 -50 -58 -17 0 -47 21 -47 33 0 7 29 52
65 101 36 48 65 91 65 96 0 4 -17 19 -37 33 -21 13 -64 43 -95 66 l-57 41 -63
-87 c-35 -48 -66 -91 -70 -97 -11 -17 -61 11 -56 32 3 9 71 108 152 219 l147
203 25 -16 c13 -9 24 -21 24 -28z m-6769 -319 c150 -207 153 -213 108 -237
-14 -8 -26 2 -65 58 -27 37 -53 72 -59 79 -5 6 -44 59 -85 117 -41 58 -79 106
-83 106 -4 0 -32 -18 -62 -40 l-54 -40 64 -122 c111 -216 127 -292 73 -353
l-31 -36 -20 20 c-20 20 -20 21 -2 55 17 32 18 41 7 83 -15 53 -65 164 -123
265 -60 106 -63 95 57 181 58 41 111 73 118 71 6 -3 77 -96 157 -207z m7293
-47 c134 -82 157 -212 61 -350 -114 -164 -270 -191 -395 -68 -79 78 -91 154
-39 258 89 178 238 242 373 160z m-7798 -101 c56 -27 125 -101 162 -175 24
-49 29 -70 28 -125 -1 -82 -32 -131 -114 -186 -49 -32 -64 -37 -116 -37 -38 0
-72 6 -91 16 -51 28 -125 110 -157 176 -57 116 -34 217 66 294 77 58 151 70
222 37z m8241 -220 c41 -26 91 -83 99 -113 6 -27 -11 -66 -29 -66 -7 1 -22 23
-35 50 -67 143 -230 120 -328 -46 -72 -122 -14 -241 127 -259 52 -6 54 -8 37
-34 -41 -66 -224 25 -258 128 -16 51 -9 124 19 183 26 54 104 139 150 162 72
38 152 36 218 -5z m-8674 -112 c177 -238 239 -328 234 -341 -3 -8 -15 -20 -26
-25 -21 -12 -23 -9 -224 271 -34 48 -66 88 -71 88 -4 0 -21 -10 -36 -22 -15
-13 -55 -43 -89 -67 -34 -24 -61 -45 -61 -47 0 -4 72 -106 169 -239 108 -146
105 -140 74 -160 -21 -14 -27 -15 -38 -3 -7 7 -76 100 -154 207 -87 121 -138
199 -133 207 11 20 284 214 293 208 5 -3 33 -37 62 -77z m9000 -132 c91 -66
144 -111 140 -118 -21 -38 -25 -37 -90 9 -36 26 -68 42 -72 37 -59 -88 -265
-363 -271 -363 -4 0 -18 8 -30 18 l-22 18 119 164 c66 91 127 177 136 191 l17
26 -60 42 c-33 23 -60 45 -60 47 0 17 24 45 34 41 7 -3 79 -53 159 -112z
m-9443 -159 c106 -44 212 -209 204 -318 -7 -100 -110 -198 -223 -214 -84 -12
-199 74 -258 194 -34 68 -38 157 -10 210 56 104 194 166 287 128z m9697 -26
c10 -15 3 -30 -47 -96 l-60 -79 23 -18 c83 -67 116 -100 131 -132 48 -100 -53
-226 -166 -208 -32 4 -111 45 -135 69 -7 7 -28 22 -48 34 -38 23 -44 45 -20
75 15 20 125 170 182 250 102 142 113 150 140 105z m-10112 -327 c67 -96 182
-253 195 -266 4 -5 20 -1 34 8 15 10 28 16 30 14 23 -22 105 -146 103 -153 -2
-5 -11 -14 -21 -20 -15 -9 -22 -6 -40 18 -11 16 -30 40 -41 53 l-20 24 -155
-112 c-85 -61 -157 -113 -159 -115 -3 -3 14 -31 64 -101 7 -10 5 -18 -10 -29
-10 -8 -23 -13 -29 -11 -5 2 -32 35 -59 75 -48 68 -50 73 -34 90 9 10 17 31
17 45 0 35 -34 133 -69 200 -16 28 -47 88 -70 131 l-42 80 23 18 c13 10 46 34
73 53 28 19 64 46 80 59 49 41 64 34 130 -61z m4956 -8292 c4 -21 3 -661 -1
-662 -3 0 -13 -2 -24 -4 -31 -6 -46 5 -42 30 7 36 -3 37 -43 5 -78 -62 -174
-57 -238 12 -32 35 -53 118 -49 201 5 136 67 218 168 223 56 2 92 -9 122 -39
27 -28 32 -12 29 105 -2 118 1 135 25 140 20 5 52 -2 53 -11z m-515 -45 c12
-50 -16 -79 -68 -68 -21 4 -32 35 -24 68 5 20 12 24 46 24 34 0 41 -4 46 -24z
m-1158 -98 l3 -57 62 -3 c62 -3 62 -3 62 -33 0 -32 6 -30 -92 -34 l-33 -1 3
-151 c2 -143 3 -152 25 -169 18 -15 29 -17 54 -10 17 5 35 7 39 4 17 -10 9
-53 -12 -64 -30 -17 -106 -14 -134 4 -45 29 -53 64 -54 228 -1 84 -4 154 -6
157 -3 2 -18 4 -35 4 -31 0 -44 18 -35 48 5 14 16 19 41 19 l34 0 0 53 c0 63
4 69 45 65 29 -3 30 -5 33 -60z m469 -54 c24 -7 31 -26 25 -62 -4 -19 -9 -22
-26 -17 -45 14 -71 6 -108 -36 -21 -23 -38 -49 -39 -58 0 -9 -1 -79 -2 -156
l-2 -140 -37 -1 c-20 -1 -38 4 -40 10 -2 6 -3 110 -3 231 l1 220 37 3 c37 3
37 3 37 -34 l0 -38 28 31 c45 50 76 61 129 47z m348 -5 c74 -20 119 -80 128
-174 8 -74 5 -75 -158 -74 -80 0 -149 -2 -154 -5 -17 -11 8 -90 39 -118 38
-35 87 -44 158 -28 81 17 96 17 100 -2 6 -28 -37 -56 -97 -64 -188 -26 -279
43 -286 215 -6 188 108 294 270 250z m1300 -20 c45 -29 73 -81 81 -149 9 -77
5 -79 -154 -79 -75 0 -143 0 -149 -1 -37 -1 1 -111 47 -139 38 -22 116 -25
174 -5 54 19 66 18 66 -10 0 -30 -14 -41 -69 -56 -111 -29 -225 -5 -270 59
-75 105 -54 305 37 369 67 47 176 52 237 11z m505 10 c67 -33 75 -60 75 -269
l0 -185 -33 -1 c-18 -1 -34 2 -37 5 -2 4 -4 79 -6 166 -2 165 -6 188 -43 217
-39 32 -95 17 -147 -39 -26 -27 -27 -31 -27 -163 0 -208 3 -190 -34 -186 -18
2 -36 4 -40 5 -3 0 -5 103 -5 229 l2 227 35 0 c33 0 35 -2 34 -33 l-1 -32 26
24 c58 55 133 68 201 35z m730 0 c5 -7 7 -23 5 -34 -2 -11 -4 -23 -4 -27 -1
-4 -14 -5 -31 -2 -46 10 -77 -3 -107 -43 -27 -35 -28 -41 -33 -192 l-5 -156
-35 0 -35 0 -3 233 -2 232 35 0 c34 0 35 -1 35 -37 1 -32 3 -35 13 -23 37 45
77 68 117 66 23 -2 46 -9 50 -17z m-2202 -221 l-3 -233 -35 0 -35 0 -3 233 -2
232 40 0 40 0 -2 -232z m2378 71 c0 -105 5 -166 14 -188 27 -67 105 -71 168
-8 l35 36 1 158 1 158 40 0 39 0 1 -223 c0 -236 -2 -245 -46 -239 -19 3 -25
11 -27 36 l-3 32 -32 -27 c-40 -34 -72 -46 -124 -46 -55 0 -96 25 -124 76 -21
37 -23 53 -24 211 -1 93 1 174 3 178 2 4 20 7 40 5 l37 -3 1 -156z m-585 -211
c16 -25 10 -77 -10 -88 -28 -14 -57 -12 -71 5 -18 21 -15 77 4 91 20 14 66 10
77 -8z"/>
<path d="M5636 12404 c-69 -52 -85 -88 -60 -135 30 -60 87 -64 162 -13 37 25
50 39 44 47 -5 7 -30 40 -55 74 l-45 62 -46 -35z"/>
<path d="M8372 12148 c-21 -29 -47 -66 -59 -82 l-21 -30 41 -30 c55 -39 107
-43 147 -9 35 29 51 77 37 115 -9 28 -75 88 -96 88 -6 0 -28 -24 -49 -52z"/>
<path d="M4646 9796 c-13 -28 -51 -112 -86 -186 -34 -74 -73 -160 -87 -190
-14 -30 -39 -84 -55 -120 -17 -36 -70 -150 -118 -255 -111 -241 -146 -317
-245 -530 -20 -44 -45 -98 -55 -120 -10 -22 -35 -76 -55 -120 -21 -44 -75
-161 -120 -260 -46 -99 -101 -218 -123 -265 -22 -47 -76 -164 -120 -260 -44
-96 -99 -215 -122 -265 -23 -49 -75 -162 -115 -250 -40 -88 -92 -200 -115
-250 -23 -49 -64 -139 -92 -200 -28 -60 -72 -157 -99 -214 -27 -57 -49 -105
-49 -106 0 -2 -24 -54 -54 -117 -29 -62 -63 -135 -76 -163 -45 -100 -250 -544
-349 -758 -39 -84 -41 -94 -41 -181 l0 -93 611 0 612 0 30 66 c16 36 54 117
83 179 30 62 54 114 54 116 0 2 27 60 60 128 l59 125 965 0 964 0 68 -146 c37
-80 91 -195 119 -256 28 -60 62 -133 74 -161 l23 -51 919 0 919 0 1 96 c0 53
0 376 0 719 l0 622 22 1 c67 3 628 1 631 -2 2 -2 191 -326 420 -720 l417 -716
699 0 699 0 -1 91 0 91 -296 480 c-162 264 -310 503 -327 530 -18 28 -94 151
-170 275 -76 124 -144 234 -151 245 -13 19 -9 24 49 65 96 69 266 245 341 353
173 248 286 558 312 852 68 758 -296 1437 -929 1735 -147 69 -322 123 -472
146 -16 3 -39 6 -50 9 -74 15 -306 19 -1310 19 l-1130 1 -2 -1640 c-1 -902 -4
-1650 -5 -1663 -2 -14 -40 59 -108 205 -57 125 -125 273 -151 328 -26 55 -88
190 -139 300 -51 110 -107 232 -125 270 -18 39 -43 93 -55 120 -28 61 -92 199
-130 280 -15 33 -42 92 -60 130 -39 85 -134 290 -185 400 -71 154 -84 181
-120 260 -21 44 -66 141 -100 215 -34 74 -119 257 -187 405 -69 149 -144 311
-168 362 l-42 91 -270 0 -269 -1 -23 -51z m5119 -501 c4 -38 8 -86 10 -105 2
-19 7 -66 11 -105 4 -38 7 -82 7 -97 0 -16 3 -28 7 -28 3 0 78 47 165 104 88
57 162 102 164 100 2 -2 -58 -63 -133 -135 -75 -72 -136 -135 -136 -138 0 -4
88 -36 195 -71 107 -35 195 -65 195 -67 0 -3 -8 -2 -17 1 -10 2 -45 7 -78 11
-33 3 -73 8 -90 11 -56 8 -100 13 -168 20 l-67 7 16 -39 c9 -22 33 -86 54
-144 21 -58 47 -130 60 -160 12 -30 18 -52 14 -48 -3 4 -52 82 -108 174 -55
91 -105 166 -111 166 -9 0 -155 -230 -191 -300 -9 -18 -20 -34 -24 -37 -7 -5
18 73 40 120 5 11 25 67 46 125 20 58 41 113 46 123 7 14 4 17 -15 17 -20 0
-248 -28 -361 -44 -56 -9 -9 10 172 69 100 33 182 62 182 66 0 6 -132 137
-245 244 -62 59 -40 48 148 -76 83 -55 152 -98 154 -95 8 7 11 38 29 235 3 41
8 81 9 90 2 9 4 31 4 50 1 52 8 34 16 -44z m-738 -640 c246 -47 409 -267 418
-565 8 -267 -112 -506 -301 -595 -103 -49 -136 -51 -639 -51 l-470 1 -2 611
-2 612 462 0 c349 0 480 -3 534 -13z m-3892 -1245 c98 -223 220 -499 271 -615
51 -115 91 -211 89 -213 -6 -6 -1097 -4 -1102 2 -3 2 69 177 160 388 90 211
213 497 273 636 97 227 109 250 120 230 6 -13 91 -205 189 -428z"/>
<path d="M6660 4578 c-97 -25 -191 -76 -260 -139 -184 -169 -261 -240 -315
-291 -33 -31 -76 -70 -95 -88 -34 -31 -179 -165 -330 -305 -42 -38 -132 -122
-200 -185 -69 -63 -152 -140 -185 -170 -33 -31 -87 -81 -119 -110 -33 -30 -76
-71 -96 -90 -21 -19 -62 -57 -91 -84 -30 -27 -106 -97 -169 -156 -63 -58 -137
-126 -164 -151 -27 -24 -65 -60 -86 -79 -20 -19 -61 -57 -91 -85 -30 -27 -109
-101 -175 -163 -67 -61 -130 -120 -142 -130 -12 -10 -70 -64 -129 -119 -59
-55 -130 -120 -157 -145 -41 -38 -49 -51 -53 -91 -5 -44 -3 -49 29 -80 19 -18
50 -37 69 -43 71 -22 111 -9 338 107 479 246 605 311 811 417 291 149 584 299
765 392 848 436 842 433 1025 433 171 0 150 9 860 -355 118 -61 287 -148 375
-193 88 -45 286 -146 440 -225 154 -78 321 -164 370 -190 418 -220 765 -390
805 -393 105 -8 196 67 176 146 -7 29 -21 44 -166 177 -63 58 -121 112 -130
120 -9 8 -69 65 -135 125 -65 61 -126 117 -135 125 -9 8 -70 65 -136 125 -115
106 -253 235 -264 245 -3 3 -59 55 -124 115 -66 61 -127 117 -136 125 -67 63
-246 228 -260 240 -16 14 -146 134 -309 286 -36 34 -79 73 -96 88 -16 15 -77
72 -135 126 -58 53 -127 117 -154 141 -27 24 -61 55 -75 69 -14 14 -82 77
-151 140 -68 63 -148 137 -177 164 -92 86 -163 125 -284 156 -92 24 -244 23
-339 -2z"/>
<path d="M5240 12063 c5 -16 23 -74 40 -131 l31 -103 52 37 c60 43 93 72 86
77 -21 17 -211 147 -214 147 -2 0 0 -12 5 -27z"/>
<path d="M9135 11630 c-4 -6 -41 -33 -83 -62 -125 -83 -122 -72 -40 -133 l72
-53 38 121 c21 67 38 125 38 130 0 11 -18 9 -25 -3z"/>
<path d="M9732 10908 c-80 -109 -79 -107 -51 -129 13 -10 46 -30 73 -44 43
-21 52 -23 79 -12 54 22 87 89 64 131 -16 31 -101 106 -120 106 -4 0 -24 -24
-45 -52z"/>
<path d="M10620 10499 c-66 -41 -138 -145 -147 -215 -7 -49 23 -102 76 -135
76 -49 150 -33 217 45 77 88 103 179 72 241 -40 76 -148 108 -218 64z"/>
<path d="M2855 10386 c-130 -58 -131 -199 -3 -329 46 -46 63 -56 100 -62 87
-13 172 54 177 139 5 110 -122 267 -215 266 -16 -1 -42 -7 -59 -14z"/>
<path d="M1985 9754 c-71 -37 -100 -86 -92 -155 6 -52 16 -73 62 -134 82 -110
157 -131 244 -69 94 67 86 184 -22 301 -67 73 -127 91 -192 57z"/>
<path d="M11630 9499 c-28 -40 -54 -77 -56 -83 -2 -6 22 -28 53 -48 70 -47
110 -50 153 -10 58 53 45 115 -39 176 -27 20 -51 36 -54 36 -2 0 -28 -32 -57
-71z"/>
<path d="M1555 9439 c-27 -21 -51 -43 -53 -48 -1 -4 22 -55 53 -113 58 -110
95 -205 95 -245 0 -12 2 -23 5 -23 9 0 191 134 194 143 5 12 -222 327 -234
326 -5 0 -32 -18 -60 -40z"/>
<path d="M6421 907 c-85 -43 -87 -272 -3 -318 15 -9 33 -14 40 -13 6 1 21 2
32 3 11 0 39 19 63 40 l42 39 -1 91 c0 82 -3 93 -25 117 -47 51 -100 66 -148
41z"/>
<path d="M5693 910 c-40 -24 -53 -43 -60 -84 l-6 -36 116 0 c64 0 118 4 121 9
11 17 -19 84 -44 103 -35 26 -92 30 -127 8z"/>
<path d="M6953 915 c-37 -16 -63 -51 -69 -94 l-5 -31 121 0 121 0 -7 38 c-13
74 -91 117 -161 87z"/>
</g>
</svg>
